<svg width="1134" height="473" xmlns="http://www.w3.org/2000/svg" xmlns:xlink="http://www.w3.org/1999/xlink" overflow="hidden"><defs><clipPath id="clip0"><rect x="0" y="0" width="1134" height="473"/></clipPath></defs><g clip-path="url(#clip0)"><rect x="0" y="0" width="1134" height="473.431" fill="#FFFFFF"/><rect x="227" y="122.111" width="75" height="76.0693" stroke="#000000" stroke-width="4.00059" stroke-miterlimit="8" fill="none"/><text font-family="Calibri,Calibri_MSFontService,sans-serif" font-weight="700" font-size="24" transform="matrix(1 0 0 1.00091 237.682 168)">Sleep</text><rect x="490" y="294.268" width="76.0001" height="76.0693" stroke="#000000" stroke-width="4.00059" stroke-miterlimit="8" fill="none"/><text font-family="Calibri,Calibri_MSFontService,sans-serif" font-weight="700" font-size="27" transform="matrix(1 0 0 1.00091 513.992 342)">PA</text><rect x="227" y="294.268" width="75" height="76.0693" stroke="#000000" stroke-width="4.00059" stroke-miterlimit="8" fill="none"/><text font-family="Calibri,Calibri_MSFontService,sans-serif" font-weight="700" font-size="27" transform="matrix(1 0 0 1.00091 250.42 342)">PA</text><rect x="363" y="294.268" width="75.9999" height="76.0693" stroke="#000000" stroke-width="4.00059" stroke-miterlimit="8" fill="none"/><text font-family="Calibri,Calibri_MSFontService,sans-serif" font-weight="700" font-size="24" transform="matrix(1 0 0 1.00091 387.85 340)">PA</text><rect x="755" y="122.111" width="76.0001" height="76.0693" stroke="#000000" stroke-width="4.00059" stroke-miterlimit="8" fill="none"/><text font-family="Calibri,Calibri_MSFontService,sans-serif" font-weight="700" font-size="24" transform="matrix(1 0 0 1.00091 765.86 168)">Sleep</text><rect x="1019" y="294.268" width="75.0001" height="76.0693" stroke="#000000" stroke-width="4.00059" stroke-miterlimit="8" fill="none"/><text font-family="Calibri,Calibri_MSFontService,sans-serif" font-weight="700" font-size="27" transform="matrix(1 0 0 1.00091 1042.17 342)">PA</text><rect x="755" y="294.268" width="76.0001" height="76.0693" stroke="#000000" stroke-width="4.00059" stroke-miterlimit="8" fill="none"/><text font-family="Calibri,Calibri_MSFontService,sans-serif" font-weight="700" font-size="27" transform="matrix(1 0 0 1.00091 778.598 342)">PA</text><rect x="891" y="294.268" width="75.9999" height="76.0693" stroke="#000000" stroke-width="4.00059" stroke-miterlimit="8" fill="none"/><text font-family="Calibri,Calibri_MSFontService,sans-serif" font-weight="700" font-size="27" transform="matrix(1 0 0 1.00091 914.618 342)">PA</text><text font-family="Calibri,Calibri_MSFontService,sans-serif" font-weight="400" font-size="24" transform="matrix(1 0 0 1.00091 80.6872 27)">Day</text><text font-family="Calibri,Calibri_MSFontService,sans-serif" font-weight="400" font-size="24" transform="matrix(1 0 0 1.00091 29.7983 66)">Occasion</text><text font-family="Calibri,Calibri_MSFontService,sans-serif" font-weight="400" font-size="24" transform="matrix(1 0 0 1.00091 155.393 27)">1</text><text font-family="Calibri,Calibri_MSFontService,sans-serif" font-weight="400" font-size="24" transform="matrix(1 0 0 1.00091 257.676 66)">1</text><text font-family="Calibri,Calibri_MSFontService,sans-serif" font-weight="400" font-size="24" transform="matrix(1 0 0 1.00091 394.123 66)">2</text><text font-family="Calibri,Calibri_MSFontService,sans-serif" font-weight="400" font-size="24" transform="matrix(1 0 0 1.00091 522.174 66)">3</text><text font-family="Calibri,Calibri_MSFontService,sans-serif" font-weight="400" font-size="24" transform="matrix(1 0 0 1.00091 686.874 27)">2</text><text font-family="Calibri,Calibri_MSFontService,sans-serif" font-weight="400" font-size="24" transform="matrix(1 0 0 1.00091 786.779 66)">1</text><text font-family="Calibri,Calibri_MSFontService,sans-serif" font-weight="400" font-size="24" transform="matrix(1 0 0 1.00091 921.532 66)">2</text><text font-family="Calibri,Calibri_MSFontService,sans-serif" font-weight="400" font-size="24" transform="matrix(1 0 0 1.00091 1049.58 66)">3</text><path d="M662.5 0.500477 662.5 479.769" stroke="#000000" stroke-width="1.33353" stroke-miterlimit="8" fill="none" fill-rule="evenodd"/><path d="M132.5 0.500477 132.5 473.15" stroke="#000000" stroke-width="1.33353" stroke-miterlimit="8" fill="none" fill-rule="evenodd"/><path d="M1134.5 39.536 0.500122 39.5359" stroke="#000000" stroke-width="1.33353" stroke-miterlimit="8" fill="none" fill-rule="evenodd"/><path d="M1134.5 77.5706 0.500122 77.5705" stroke="#000000" stroke-width="1.33353" stroke-miterlimit="8" fill="none" fill-rule="evenodd"/><path d="M267 198.18 267 284.922 263 284.922 263 198.18ZM271.001 282.92 265 294.933 258.999 282.92Z"/><path d="M795 198.18 795 284.922 791 284.922 791 198.18ZM799.001 282.92 793 294.933 786.999 282.92Z"/><path d="M265.689 196.301 519.871 289.606 518.494 293.366 264.311 200.06ZM519.37 285.157 528.572 294.933 515.238 296.436Z"/><path d="M793.689 196.301 1047.87 289.606 1046.49 293.366 792.311 200.06ZM1047.37 285.157 1056.57 294.933 1043.24 296.436Z"/></g></svg>