<?xml version="1.0" encoding="UTF-8"?>
<svg xmlns="http://www.w3.org/2000/svg" width="60mm" height="19.5mm" version="1.1" xmlns:xlink="http://www.w3.org/1999/xlink" viewBox="0 0 170.08 55.28">
  <defs>
    <style>
      .cls-1 {
        fill: #231f20;
      }

      .cls-2 {
        fill: #fff;
      }

      .cls-3 {
        fill: none;
      }

      .cls-4 {
        fill: #ffd400;
      }

      .cls-5 {
        fill: #ed1a3b;
      }

      .cls-6 {
        clip-path: url(#clippath);
      }
    </style>
    <clipPath id="clippath">
      <path class="cls-3" d="M50.83,49.9c12.3,0,22.26-9.97,22.26-22.26S63.13,5.37,50.83,5.37s-22.26,9.97-22.26,22.26,9.97,22.26,22.26,22.26Z"/>
    </clipPath>
  </defs>
  <!-- Generator: Adobe Illustrator 28.7.2, SVG Export Plug-In . SVG Version: 1.2.0 Build 154)  -->
  <g>
    <g id="background">
      <rect class="cls-3" x="0" y="-24.06" width="283.46" height="111.89"/>
    </g>
    <g id="UU_logo">
      <g>
        <g>
          <polygon class="cls-4" points="47.36 6.12 47.79 5.58 48.5 5.49 49.04 5.92 52.61 5.92 53.15 5.49 53.87 5.58 54.29 6.12 57.76 6.98 58.39 6.69 59.06 6.95 59.34 7.58 62.5 9.23 63.18 9.11 63.77 9.52 63.89 10.2 66.57 12.56 67.25 12.61 67.73 13.14 67.69 13.83 69.71 16.77 70.37 16.97 70.71 17.61 70.5 18.26 71.77 21.6 72.36 21.96 72.53 22.66 72.17 23.25 72.6 26.79 73.09 27.28 73.09 28 72.6 28.48 72.17 32.03 72.53 32.61 72.36 33.31 71.77 33.67 70.5 37.01 70.71 37.66 70.37 38.3 69.72 38.51 67.69 41.44 67.73 42.13 67.25 42.67 66.57 42.71 63.9 45.08 63.77 45.75 63.18 46.16 62.5 46.04 59.34 47.7 59.06 48.32 58.39 48.58 57.76 48.3 54.3 49.15 53.87 49.69 53.16 49.78 52.62 49.35 49.05 49.35 48.51 49.78 47.79 49.69 47.37 49.15 43.9 48.3 43.27 48.58 42.6 48.32 42.32 47.7 39.16 46.04 38.48 46.16 37.89 45.75 37.77 45.08 35.09 42.71 34.41 42.67 33.93 42.13 33.97 41.44 31.94 38.51 31.29 38.31 30.95 37.67 31.16 37.01 29.89 33.67 29.3 33.32 29.13 32.62 29.48 32.03 29.05 28.48 28.57 28 28.57 27.28 29.05 26.79 29.48 23.25 29.13 22.66 29.3 21.96 29.89 21.61 31.16 18.27 30.95 17.61 31.29 16.97 31.94 16.77 33.97 13.83 33.93 13.14 34.41 12.61 35.09 12.56 37.76 10.2 37.89 9.52 38.48 9.11 39.15 9.24 42.32 7.58 42.6 6.95 43.27 6.69 43.9 6.98 47.36 6.12"/>
          <g class="cls-6">
            <path class="cls-1" d="M53.19,5.31l-2.36,13.42-2.36-13.42M53.88,5.39l-.92,13.6,5.5-12.47M59.11,6.77l-4.15,12.98,8.33-10.79M63.87,9.36l-7.13,11.61,10.67-8.48M67.86,13.01l-9.7,9.57,12.39-5.68M70.87,17.51l-11.71,6.96,13.38-2.55M72.71,22.6l-13.04,3.96,13.61.72M73.28,27.98l-13.61.73,13.04,3.96M72.54,33.35l-13.38-2.55,11.71,6.97M70.54,38.38l-12.39-5.68,9.7,9.57M67.4,42.78l-10.67-8.48,7.13,11.61M63.3,46.31l-8.33-10.79,4.15,12.98M53.19,49.96l-2.36-13.42-2.36,13.42M47.78,49.88l.92-13.6-5.5,12.47M42.55,48.51l4.15-12.98-8.33,10.79M37.79,45.91l7.13-11.61-10.67,8.48M33.8,42.26l9.7-9.57-12.39,5.68M30.79,37.76l11.71-6.97-13.39,2.55M28.95,32.67l13.04-3.96-13.61-.73M28.38,27.29l13.61-.72-13.04-3.96M29.12,21.93l13.39,2.55-11.71-6.96M31.11,16.9l12.39,5.68-9.7-9.57M34.26,12.49l10.67,8.48-7.13-11.61M38.36,8.96l8.33,10.79-4.15-12.98M43.19,6.52l5.5,12.47-.92-13.6M58.47,48.75l-5.5-12.47.92,13.6"/>
            <path class="cls-2" d="M65.57,10.79l-1.69,1.94c.35.31.68.62,1.01.95l-.5.5c-.49-.5-1.01-.96-1.55-1.4l2.07-2.54M71.61,19.28l-3.06,1.22c.1.23.19.48.27.71l3.1-1.1M73.14,25.79l-2.53-.51h0s2.35-1.08,2.35-1.08l-.15-.86-3.06,1.6c.04.3.08.59.11.89l3.35.79M72.18,34.37l-.79-.25c-.08.25-.17.51-.26.76l-2.32-.83c-.08.23-.17.48-.27.71l2.28.92c-.1.25-.21.51-.32.75l.76.34M69.5,39.99l-2.74-1.82c-.14.21-.29.43-.43.63l2.66,1.93M66.6,43.53l-.58-.59c-.19.19-.38.37-.58.55l-1.67-1.81c-.18.17-.38.34-.57.51l1.59,1.88c-.21.18-.42.35-.63.52l.51.65M61.62,47.26l-1.58-2.89c-.22.12-.45.24-.67.36l1.47,2.95M54.57,49.71l-.13-.82c.43-.07.86-.16,1.34-.27l-.13-.54c-.43.1-.81.18-1.19.24l-.1-.63c.37-.06.73-.14,1.14-.23l-.14-.55c-.44.1-.83.18-1.23.25l-.12-.7c.64-.11,1.28-.25,1.91-.43l.24.83c.34-.1.68-.2,1.02-.32l.17-.64.5,1.11-.65,2.07M56.66,48.61l.35-1.31c-.23.07-.47.14-.69.21l.3,1.12h.04ZM45.92,49.49l.73-3.22c-.24-.05-.5-.11-.74-.18l-.86,3.18M41.34,47.92l1.4-2.97c-.63-.3-1.25-.63-1.85-.99l-.37.6c.39.24.79.46,1.2.67l-1.19,2.3M36.76,45.05l2.07-2.55c-.54-.44-1.06-.91-1.56-1.4l-.5.5c.32.33.66.64,1.01.94l-1.69,1.93M31.94,39.66l2.48-.73h0s-1.58,2.04-1.58,2.04l.54.69,1.97-2.83c-.18-.24-.35-.49-.51-.74l-3.33.86M28.79,31.61l.81-.15c-.05-.26-.09-.53-.13-.79l2.44-.34c-.04-.25-.07-.51-.09-.76l-2.45.25c-.03-.27-.05-.55-.07-.82l-.82.05M28.45,26.28l3.32.19c.02-.25.04-.51.06-.76l-1.23-.12s0-.08.01-.12c.04-.22.31-.39.6-.49.24-.09.74-.22.74-.22.04-.29.09-.56.16-.85,0,0-.87.3-1.18.48-.2.11-.31.17-.43.31h-.02c-.01-.51-.31-.83-.78-.86-.58-.04-.89.48-.97,1.11h-.14M29.74,24.66c.32.04.36.34.34.53-.01.11-.03.25-.04.36l-.79-.08c.01-.13.02-.25.03-.37.04-.33.2-.47.46-.44ZM29.75,20.07l2.69,2.38c.08-.27.16-.55.25-.81l-.58-.47c.12-.35.25-.7.4-1.05l.75.03c.12-.27.24-.54.36-.8l-3.56-.1M30.57,19.95l1.29.11c-.09.23-.18.46-.26.7l-1.03-.79h0ZM34.82,11.99l2.35,2.29c.16-.17.32-.33.49-.49l-1.47-1.53,2.32.77c.22-.18.44-.36.66-.53l-1.96-2.64-.65.51,1.39,1.7-2.4-.8M54.32,8.78c.28.18.6.33.92.41.69.17,1.37.03,1.56-.74.11-.44-.03-.81-.78-1.18-.34-.16-.4-.29-.37-.42.05-.2.22-.3.61-.21.16.04.43.16.62.29l.37-.52c-.29-.2-.59-.36-.94-.44-.59-.14-1.33,0-1.5.67-.15.6.17.88.51,1.07.34.2.69.31.62.6-.07.29-.35.28-.6.22-.22-.05-.51-.2-.68-.31l-.35.55ZM58.91,8.54c-.43.82-.22,1.79.74,2.3.96.5,1.87.13,2.31-.7.43-.82.22-1.79-.74-2.29-.96-.5-1.88-.13-2.31.69ZM59.67,8.94c.33-.62.82-.73,1.24-.51.42.22.62.69.29,1.31-.32.62-.82.72-1.24.5-.42-.22-.61-.69-.29-1.31ZM69.97,28.84c-.14.3-.26.63-.3.96-.08.7.14,1.37.92,1.46.44.05.79-.13,1.07-.91.12-.36.24-.44.37-.42.2.02.32.19.28.58-.02.17-.11.45-.21.65l.56.3c.16-.31.28-.63.33-.98.07-.6-.16-1.32-.84-1.4-.62-.07-.85.28-1.01.63-.15.36-.23.73-.52.69-.3-.04-.31-.31-.28-.57.03-.22.14-.53.22-.72l-.59-.28ZM33.33,35.49c-.01-.33-.07-.68-.19-.99-.25-.66-.76-1.14-1.49-.86-.42.16-.64.48-.53,1.31.06.37-.01.5-.13.54-.19.07-.38-.01-.52-.38-.06-.16-.11-.45-.12-.68h-.63c0,.34.04.68.17,1.01.22.56.76,1.09,1.4.85.58-.22.62-.64.59-1.03-.03-.39-.14-.75.14-.85.28-.11.42.13.52.37.08.21.12.54.13.74l.66-.03ZM39.7,10.14c.43.82,1.35,1.2,2.31.69.96-.51,1.17-1.47.74-2.29-.43-.82-1.35-1.2-2.31-.69-.96.5-1.17,1.47-.74,2.29ZM40.46,9.74c-.33-.62-.13-1.09.29-1.31.42-.22.92-.12,1.24.5.33.62.13,1.09-.29,1.31-.42.22-.91.11-1.24-.51ZM45.16,9.32c.33.03.68.02,1.01-.06.69-.17,1.23-.62,1.04-1.38-.11-.43-.4-.7-1.24-.68-.38.01-.49-.07-.52-.2-.05-.2.06-.37.45-.47.17-.04.46-.06.68-.03l.09-.63c-.35-.04-.69-.04-1.03.04-.58.15-1.18.62-1.01,1.29.15.6.56.7.95.71.39.02.76-.05.83.24.07.29-.18.41-.43.47-.22.05-.55.05-.75.04l-.05.65ZM50.83,7.79c.44,0,.8-.36.8-.8s-.36-.8-.8-.8-.8.36-.8.8.36.8.8.8ZM67.16,16.37c.25.37.75.46,1.12.2.37-.25.46-.75.2-1.12-.25-.37-.75-.46-1.12-.21-.37.25-.46.75-.21,1.12ZM50.03,48.29c0,.45.36.8.8.8s.8-.36.8-.8-.36-.81-.8-.81-.8.36-.8.81ZM34.5,16.37c.25-.36.16-.87-.2-1.12-.37-.25-.87-.16-1.12.21-.25.36-.16.87.21,1.12.36.25.87.16,1.12-.2Z"/>
          </g>
          <g>
            <path class="cls-5" d="M53.88,30.69c-.25.26-.6.41-.99.41h-.81c-.45,0-.86.22-1.11.56h-.3c-.25-.34-.65-.56-1.11-.56h-.81c-.76,0-1.38-.62-1.38-1.38v-5.53"/>
            <path class="cls-2" d="M47.38,24.19h6.89v5.53c0,.38-.15.72-.39.96"/>
            <path class="cls-1" d="M54.64,29.71c0,.96-.78,1.74-1.74,1.74h-.81c-.43,0-.79.26-.95.63h-.62c-.16-.37-.52-.63-.95-.63h-.81c-.96,0-1.74-.78-1.74-1.74v-5.88h7.61v5.88ZM53.92,24.54h-6.19v5.16c0,.56.46,1.03,1.03,1.03h.81c.49,0,.93.21,1.25.54h.02c.32-.33.75-.54,1.25-.54h.81c.57,0,1.03-.46,1.03-1.03v-5.16Z"/>
          </g>
        </g>
        <g>
          <path class="cls-1" d="M88.2,14.76h4.54v.68h-.12c-1.4,0-1.61.61-1.61,1.45v4.35c0,3.9-2.83,4.64-4.91,4.64-3.15,0-5.14-1.36-5.14-4.04v-5.21c0-.88-.24-1.19-1.22-1.19h-.3v-.68h5.48v.68h-.29c-.74,0-1.24.33-1.24,1.19v5.21c0,2.13,1.57,2.87,3.16,2.87,2.29,0,3.43-1.29,3.43-3.22v-4.25c0-1.24-.35-1.8-1.44-1.8h-.32v-.68ZM95.52,23.7c0,.65.29.92.8.92.42,0,.82-.26,1.33-.87l.25.49c-.53.94-1.58,1.59-2.54,1.59-1.19,0-1.98-.67-1.98-2.17v-4.2h-.92v-.46c1.05-.44,2.24-1.71,2.56-2.69h.51v2.19h2.29l-.26.96h-2.03v4.23ZM103.56,25.64h-4.87v-.56h.12c.72,0,.98-.31.98-1.22v-2.85c0-.79-.1-.96-.63-1.17l-.47-.19v-.44l2.87-1.08h.37v1.96h.03c.65-1.26.93-1.77,1.52-1.77.12,0,.26.02.35.05l1.38.51c-.21.74-.49,1.36-.83,1.85-.55-.21-1.19-.44-1.42-.44-.35,0-.64.25-1.03.79v2.84c0,.84.26,1.17,1.17,1.17h.45v.56ZM112.83,23.61c-.98,1.38-2.39,2.22-3.74,2.22-1.91,0-3.2-1.47-3.2-3.59,0-2.31,1.56-3.94,3.74-3.94.93,0,1.67.3,2.21.84,1.03,1.03.54,2.01,1.16,2.33v.51h-4.85c.14,1.45,1.12,2.55,2.15,2.55.65,0,1.28-.37,2.14-1.26l.4.33ZM110.58,21.3c-.02-1.35-.49-2.17-1.24-2.17-.72,0-1.36.92-1.24,2.17h2.49ZM121.29,23.96c-.8,1.22-2.03,1.87-3.57,1.87-2.13,0-3.68-1.45-3.68-3.47,0-2.29,1.98-4.06,4.53-4.06,1.51,0,2.64.63,2.64,1.49,0,.52-.35.88-.89.88-1.22,0-1.48-1.56-2.5-1.56-.88,0-1.47,1.07-1.47,2.64,0,1.89.9,3.17,2.19,3.17.79,0,1.52-.4,2.24-1.24l.51.28ZM125.08,23.87c0,1.1.3,1.21.91,1.21h.17v.56h-4.43v-.56h.25c.89,0,.96-.35.96-1.28v-7.65c0-.51-.09-.63-.56-.79l-.51-.17v-.4l2.78-.86h.42v5.7c.98-.68,2.24-1.33,3.15-1.33,1.28,0,1.91,1.03,1.91,3.1v2.31c0,1.03.12,1.36.79,1.36h.17v.56h-4.13v-.56h.14c.73,0,.89-.28.89-1.28v-2.64c0-.94-.44-1.54-1.14-1.54-.48,0-1.17.26-1.79.66v3.59ZM134.92,23.7c0,.65.3.92.8.92.42,0,.82-.26,1.33-.87l.25.49c-.53.94-1.58,1.59-2.54,1.59-1.19,0-1.98-.67-1.98-2.17v-4.2h-.93v-.46c1.05-.44,2.24-1.71,2.55-2.69h.51v2.19h2.29l-.26.96h-2.03v4.23Z"/>
          <path class="cls-1" d="M88.2,29.64h4.53v.68h-.12c-1.4,0-1.61.61-1.61,1.45v4.36c0,3.9-2.83,4.63-4.92,4.63-3.15,0-5.14-1.36-5.14-4.04v-5.21c0-.87-.24-1.19-1.22-1.19h-.3v-.68h5.48v.68h-.3c-.74,0-1.24.33-1.24,1.19v5.21c0,2.14,1.58,2.87,3.17,2.87,2.29,0,3.43-1.29,3.43-3.22v-4.25c0-1.24-.35-1.8-1.44-1.8h-.31v-.68ZM100.96,38.93c0,.86.31,1.03,1,1.03v.56h-4.13v-.56c.72-.05,1-.54,1-1.98v-1.52c0-1.4-.39-1.94-1.08-1.94-.54,0-1.12.26-1.86.77v3.55c0,.79.33,1.12,1.03,1.12h.16v.56h-4.43v-.56h.1c.74,0,1-.31,1-1.22v-3.41c0-.39-.21-.61-.82-.79l-.36-.11v-.42l2.99-1.01h.33v1.55c1.28-.84,2.4-1.36,3.24-1.36,1.28,0,1.84.91,1.84,3.01v2.73ZM107.48,40.52h-4.37v-.56h.19c.72,0,.98-.31.98-1.22v-3.36c0-.46-.11-.58-.6-.75l-.58-.21v-.42l2.99-1h.32v5.86c0,.72.29,1.1,1.06,1.1v.56ZM106.66,30.21c0,.7-.67,1.19-1.38,1.19-.81,0-1.4-.51-1.4-1.19,0-.63.66-1.19,1.4-1.19.8,0,1.38.53,1.38,1.19ZM107.68,33.38h4.44v.56h-.61c-.37,0-.52.33-.23.98l1.55,3.48,1.36-3.08c.4-.91.2-1.26-1.03-1.38v-.56h3.48v.56c-.91.09-1.14.31-1.47,1.05l-2.5,5.65h-1.05l-2.61-5.61c-.33-.72-.58-1-1.35-1.08v-.56ZM123.7,38.49c-.98,1.38-2.4,2.22-3.74,2.22-1.91,0-3.2-1.47-3.2-3.59,0-2.31,1.56-3.94,3.74-3.94.93,0,1.66.3,2.2.84,1.04,1.03.54,2.01,1.16,2.33v.51h-4.85c.14,1.45,1.12,2.55,2.15,2.55.65,0,1.28-.36,2.14-1.26l.4.34ZM121.45,36.18c-.02-1.35-.49-2.17-1.24-2.17s-1.36.93-1.24,2.17h2.48ZM129.65,40.52h-4.86v-.56h.12c.72,0,.98-.31.98-1.22v-2.85c0-.79-.1-.96-.63-1.17l-.47-.19v-.44l2.87-1.08h.37v1.96h.04c.64-1.26.92-1.77,1.52-1.77.12,0,.26.02.35.05l1.38.51c-.21.73-.49,1.36-.84,1.85-.54-.21-1.19-.44-1.42-.44-.35,0-.65.24-1.03.79v2.83c0,.84.26,1.17,1.17,1.17h.45v.56ZM132.42,38.45h.56c.3.98,1.07,1.5,1.82,1.5.49,0,.91-.37.91-.8,0-1.21-3.29-1.63-3.29-3.75,0-1.33,1.1-2.22,2.74-2.22.67,0,1.23.11,1.96.37l.03,1.87h-.56c-.31-.96-.89-1.49-1.64-1.49-.45,0-.8.28-.8.66,0,1.43,3.45,1.49,3.45,3.89,0,1.29-.93,2.2-2.27,2.2-1.21,0-1.61-.25-1.86-.25-.1,0-.21.07-.35.23h-.51l-.19-2.22ZM143.41,40.52h-4.38v-.56h.2c.72,0,.98-.31.98-1.22v-3.36c0-.46-.1-.58-.59-.75l-.58-.21v-.42l2.99-1h.31v5.86c0,.72.3,1.1,1.07,1.1v.56ZM142.58,30.21c0,.7-.66,1.19-1.38,1.19-.8,0-1.4-.51-1.4-1.19,0-.63.66-1.19,1.4-1.19.8,0,1.38.53,1.38,1.19ZM147.36,38.58c0,.65.29.92.8.92.42,0,.82-.26,1.33-.87l.24.49c-.52.94-1.57,1.59-2.54,1.59-1.19,0-1.98-.67-1.98-2.17v-4.2h-.93v-.46c1.05-.44,2.24-1.71,2.55-2.69h.51v2.19h2.29l-.26.96h-2.03v4.24ZM154.81,40.34l-.35.77c-.93,2.03-1.85.94-2.66,1.75-.16.16-.26.45-.26.73,0,.58.47,1,1.1,1s1.15-.42,1.59-1.29l3.91-7.97c.49-1,.72-1.21,1.5-1.38v-.56h-3.25v.56c1.05.02,1.28.61.91,1.36l-1.33,2.69-1.45-3.01c-.33-.7-.19-1.05.72-1.05v-.56h-4.46v.56c.75,0,1.05.33,1.66,1.59l2.36,4.81Z"/>
        </g>
      </g>
    </g>
  </g>
</svg>